# xmcd
#
# Track frame offsets: 
#        150
#        18075
#        30970
#        49462
#        64732
#        80982
#        98797
#        116755
#        135192
#        149462
#        167452
#        182675
#        203337
#
# Disc length: 2924 seconds
#
# Revision: 3
# Processed by: cddbd v1.5.2PL0 Copyright (c) Steve Scherf et al.
# Submitted via: ExactAudioCopy v0.95b4
#
DISCID=a50b6a0d
DTITLE=Chris de Burgh - Beautiful Dreams
DYEAR=1995
DGENRE=Blues
TTITLE0=Missing You
TTITLE1=Girl
TTITLE2=Carry Me (Like A Fire In Your Heart)
TTITLE3=Discovery
TTITLE4=The Snows of New York
TTITLE5=In Love Forever
TTITLE6=Shine On
TTITLE7=The Lady in Red
TTITLE8=In Dreams
TTITLE9=I'm Not Crying Over You
TTITLE10=Always on My Mind
TTITLE11=Say Goodbye To It All
TTITLE12=One More Mile To Go
EXTD=
EXTT0=
EXTT1=
EXTT2=
EXTT3=
EXTT4=
EXTT5=
EXTT6=
EXTT7=
EXTT8=
EXTT9=
EXTT10=
EXTT11=
EXTT12=
PLAYORDER=
